<mxfile host="app.diagrams.net" agent="Mozilla/5.0 (Macintosh; Intel Mac OS X 10.15; rv:128.0) Gecko/20100101 Firefox/128.0" version="28.0.6">
  <diagram name="Page-1" id="w69QgauEFFYnWDhPD-Ga">
    <mxGraphModel dx="494" dy="328" grid="0" gridSize="10" guides="1" tooltips="1" connect="1" arrows="1" fold="1" page="1" pageScale="1" pageWidth="850" pageHeight="1100" math="0" shadow="0">
      <root>
        <mxCell id="0" />
        <mxCell id="1" parent="0" />
        <mxCell id="bY4IOYTVBXKEHmrtxOaj-78" value="" style="curved=1;endArrow=none;html=1;rounded=0;endFill=0;strokeColor=default;movable=0;resizable=0;rotatable=0;deletable=0;editable=0;locked=1;connectable=0;" edge="1" parent="1">
          <mxGeometry width="50" height="50" relative="1" as="geometry">
            <mxPoint x="490" y="480" as="sourcePoint" />
            <mxPoint x="490" y="480" as="targetPoint" />
            <Array as="points">
              <mxPoint x="260" y="480" />
              <mxPoint x="247" y="480" />
              <mxPoint x="253" y="474" />
              <mxPoint x="249" y="458" />
              <mxPoint x="260" y="440" />
              <mxPoint x="300" y="430" />
              <mxPoint x="320" y="420" />
              <mxPoint x="340" y="400" />
              <mxPoint x="370" y="390" />
              <mxPoint x="390" y="390" />
              <mxPoint x="418" y="395" />
              <mxPoint x="460" y="420" />
              <mxPoint x="490" y="440" />
              <mxPoint x="500" y="430" />
              <mxPoint x="501" y="449" />
              <mxPoint x="500" y="480" />
            </Array>
          </mxGeometry>
        </mxCell>
        <mxCell id="bY4IOYTVBXKEHmrtxOaj-89" value="" style="ellipse;whiteSpace=wrap;html=1;aspect=fixed;movable=0;resizable=0;rotatable=0;deletable=0;editable=0;locked=1;connectable=0;" vertex="1" parent="1">
          <mxGeometry x="287" y="459" width="36" height="36" as="geometry" />
        </mxCell>
        <mxCell id="bY4IOYTVBXKEHmrtxOaj-90" value="" style="ellipse;whiteSpace=wrap;html=1;aspect=fixed;movable=0;resizable=0;rotatable=0;deletable=0;editable=0;locked=1;connectable=0;" vertex="1" parent="1">
          <mxGeometry x="440" y="459" width="36" height="36" as="geometry" />
        </mxCell>
        <mxCell id="bY4IOYTVBXKEHmrtxOaj-91" value="" style="curved=1;endArrow=none;html=1;rounded=0;endFill=0;strokeColor=default;shadow=0;fillColor=light-dark(transparent,#FF8000);movable=0;resizable=0;rotatable=0;deletable=0;editable=0;locked=1;connectable=0;" edge="1" parent="1">
          <mxGeometry width="50" height="50" relative="1" as="geometry">
            <mxPoint x="459" y="440" as="sourcePoint" />
            <mxPoint x="452" y="449" as="targetPoint" />
            <Array as="points">
              <mxPoint x="454" y="451" />
              <mxPoint x="433" y="451" />
              <mxPoint x="296" y="454" />
              <mxPoint x="306" y="432" />
              <mxPoint x="327" y="423" />
              <mxPoint x="341" y="403" />
              <mxPoint x="388" y="393" />
              <mxPoint x="414" y="399" />
              <mxPoint x="452" y="421" />
              <mxPoint x="463" y="441" />
            </Array>
          </mxGeometry>
        </mxCell>
        <mxCell id="bY4IOYTVBXKEHmrtxOaj-100" value="" style="rounded=1;whiteSpace=wrap;html=1;movable=0;resizable=0;rotatable=0;deletable=0;editable=0;locked=1;connectable=0;" vertex="1" parent="1">
          <mxGeometry x="351" y="456" width="85" height="21" as="geometry" />
        </mxCell>
        <mxCell id="bY4IOYTVBXKEHmrtxOaj-106" value="" style="endArrow=oval;html=1;rounded=0;strokeColor=light-dark(#000000,#CC0000);startArrow=oval;startFill=1;endFill=1;movable=0;resizable=0;rotatable=0;deletable=0;editable=0;locked=1;connectable=0;" edge="1" parent="1">
          <mxGeometry width="50" height="50" relative="1" as="geometry">
            <mxPoint x="395" y="470" as="sourcePoint" />
            <mxPoint x="399" y="415" as="targetPoint" />
            <Array as="points">
              <mxPoint x="396" y="458" />
              <mxPoint x="404" y="454" />
              <mxPoint x="391" y="449" />
              <mxPoint x="404" y="443" />
              <mxPoint x="391" y="437" />
              <mxPoint x="405" y="431" />
              <mxPoint x="399" y="425" />
            </Array>
          </mxGeometry>
        </mxCell>
        <mxCell id="bY4IOYTVBXKEHmrtxOaj-110" value="" style="endArrow=oval;html=1;rounded=0;strokeColor=light-dark(#000000,#CC0000);startArrow=oval;startFill=1;endFill=1;movable=0;resizable=0;rotatable=0;deletable=0;editable=0;locked=1;connectable=0;" edge="1" parent="1">
          <mxGeometry width="50" height="50" relative="1" as="geometry">
            <mxPoint x="395" y="470" as="sourcePoint" />
            <mxPoint x="476" y="392" as="targetPoint" />
            <Array as="points">
              <mxPoint x="434" y="427" />
              <mxPoint x="432" y="418" />
              <mxPoint x="444" y="425" />
              <mxPoint x="440" y="412" />
              <mxPoint x="455" y="417" />
              <mxPoint x="449" y="405" />
              <mxPoint x="465" y="411" />
              <mxPoint x="457" y="397" />
              <mxPoint x="467" y="400" />
            </Array>
          </mxGeometry>
        </mxCell>
        <mxCell id="bY4IOYTVBXKEHmrtxOaj-111" value="" style="endArrow=oval;html=1;rounded=0;strokeColor=light-dark(#000000,#CC0000);startArrow=oval;startFill=1;endFill=1;movable=0;resizable=0;rotatable=0;deletable=0;editable=0;locked=1;connectable=0;" edge="1" parent="1">
          <mxGeometry width="50" height="50" relative="1" as="geometry">
            <mxPoint x="399" y="415" as="sourcePoint" />
            <mxPoint x="395" y="360" as="targetPoint" />
            <Array as="points">
              <mxPoint x="398" y="403" />
              <mxPoint x="390" y="399" />
              <mxPoint x="403" y="394" />
              <mxPoint x="390" y="388" />
              <mxPoint x="403" y="382" />
              <mxPoint x="389" y="376" />
              <mxPoint x="395" y="370" />
            </Array>
          </mxGeometry>
        </mxCell>
        <mxCell id="bY4IOYTVBXKEHmrtxOaj-118" value="Battery Temp." style="whiteSpace=wrap;html=1;rounded=1;arcSize=50;align=center;verticalAlign=middle;strokeWidth=1;autosize=1;spacing=4;treeFolding=1;treeMoving=1;newEdgeStyle={&quot;edgeStyle&quot;:&quot;entityRelationEdgeStyle&quot;,&quot;startArrow&quot;:&quot;none&quot;,&quot;endArrow&quot;:&quot;none&quot;,&quot;segment&quot;:10,&quot;curved&quot;:1,&quot;sourcePerimeterSpacing&quot;:0,&quot;targetPerimeterSpacing&quot;:0};movable=0;resizable=0;rotatable=0;deletable=0;editable=0;locked=1;connectable=0;" vertex="1" parent="1">
          <mxGeometry x="460" y="515" width="113" height="30" as="geometry" />
        </mxCell>
        <mxCell id="bY4IOYTVBXKEHmrtxOaj-119" value="" style="edgeStyle=entityRelationEdgeStyle;startArrow=none;endArrow=none;segment=10;curved=1;sourcePerimeterSpacing=0;targetPerimeterSpacing=0;rounded=0;" edge="1" target="bY4IOYTVBXKEHmrtxOaj-118" parent="1">
          <mxGeometry relative="1" as="geometry">
            <mxPoint x="396" y="471" as="sourcePoint" />
          </mxGeometry>
        </mxCell>
        <mxCell id="bY4IOYTVBXKEHmrtxOaj-122" value="Ambient Temp." style="whiteSpace=wrap;html=1;rounded=1;arcSize=50;align=center;verticalAlign=middle;strokeWidth=1;autosize=1;spacing=4;treeFolding=1;treeMoving=1;newEdgeStyle={&quot;edgeStyle&quot;:&quot;entityRelationEdgeStyle&quot;,&quot;startArrow&quot;:&quot;none&quot;,&quot;endArrow&quot;:&quot;none&quot;,&quot;segment&quot;:10,&quot;curved&quot;:1,&quot;sourcePerimeterSpacing&quot;:0,&quot;targetPerimeterSpacing&quot;:0};" vertex="1" parent="1">
          <mxGeometry x="443" y="328" width="119" height="30" as="geometry" />
        </mxCell>
        <mxCell id="bY4IOYTVBXKEHmrtxOaj-123" value="" style="edgeStyle=entityRelationEdgeStyle;startArrow=none;endArrow=none;segment=10;curved=1;sourcePerimeterSpacing=0;targetPerimeterSpacing=0;rounded=0;" edge="1" target="bY4IOYTVBXKEHmrtxOaj-122" parent="1">
          <mxGeometry relative="1" as="geometry">
            <mxPoint x="476" y="392" as="sourcePoint" />
            <Array as="points">
              <mxPoint x="549" y="431" />
              <mxPoint x="533" y="374" />
            </Array>
          </mxGeometry>
        </mxCell>
        <mxCell id="bY4IOYTVBXKEHmrtxOaj-124" value="" style="edgeStyle=entityRelationEdgeStyle;startArrow=none;endArrow=none;segment=10;curved=1;sourcePerimeterSpacing=0;targetPerimeterSpacing=0;rounded=0;entryX=0;entryY=0.5;entryDx=0;entryDy=0;" edge="1" parent="1" target="bY4IOYTVBXKEHmrtxOaj-122">
          <mxGeometry relative="1" as="geometry">
            <mxPoint x="396" y="360" as="sourcePoint" />
            <mxPoint x="521" y="374" as="targetPoint" />
            <Array as="points">
              <mxPoint x="398" y="359" />
            </Array>
          </mxGeometry>
        </mxCell>
        <mxCell id="bY4IOYTVBXKEHmrtxOaj-125" value="Cabin Temp." style="whiteSpace=wrap;html=1;rounded=1;arcSize=50;align=center;verticalAlign=middle;strokeWidth=1;autosize=1;spacing=4;treeFolding=1;treeMoving=1;newEdgeStyle={&quot;edgeStyle&quot;:&quot;entityRelationEdgeStyle&quot;,&quot;startArrow&quot;:&quot;none&quot;,&quot;endArrow&quot;:&quot;none&quot;,&quot;segment&quot;:10,&quot;curved&quot;:1,&quot;sourcePerimeterSpacing&quot;:0,&quot;targetPerimeterSpacing&quot;:0};" vertex="1" parent="1">
          <mxGeometry x="230" y="362" width="106" height="30" as="geometry" />
        </mxCell>
        <mxCell id="bY4IOYTVBXKEHmrtxOaj-127" value="" style="edgeStyle=entityRelationEdgeStyle;startArrow=none;endArrow=none;segment=10;curved=1;sourcePerimeterSpacing=0;targetPerimeterSpacing=0;rounded=0;exitX=1;exitY=0.5;exitDx=0;exitDy=0;" edge="1" parent="1" source="bY4IOYTVBXKEHmrtxOaj-125">
          <mxGeometry relative="1" as="geometry">
            <mxPoint x="456" y="329" as="sourcePoint" />
            <mxPoint x="398" y="414" as="targetPoint" />
            <Array as="points">
              <mxPoint x="458" y="328" />
            </Array>
          </mxGeometry>
        </mxCell>
      </root>
    </mxGraphModel>
  </diagram>
</mxfile>
